<svg xmlns="http://www.w3.org/2000/svg" viewBox="0 0 100 125" x="0px" y="0px">
  <path d="M65.16,38.87h0A15.71,15.71,0,0,1,54.51,54.21l-.09,0v3.41a5,5,0,1,1-9.9,0V54.13a9.88,9.88,0,0,1,6.83-9.3,5.8,5.8,0,0,0,3.92-5.66,6,6,0,0,0-5.86-5.6,5.78,5.78,0,0,0-5.16,3.28,5,5,0,1,1-8.92-4.3,15.7,15.7,0,0,1,14-8.9h.1A15.78,15.78,0,0,1,65.16,38.87ZM49.47,66.41a5,5,0,0,0,0,9.95h0a5,5,0,0,0,5-5h0A5,5,0,0,0,49.47,66.41ZM97,50A47,47,0,1,1,50,3,47,47,0,0,1,97,50ZM86.56,50A36.56,36.56,0,1,0,50,86.56,36.6,36.6,0,0,0,86.56,50Z" style="fill: #fff"/>
</svg>
