<svg xmlns:dc="http://purl.org/dc/elements/1.1/" xmlns:cc="http://creativecommons.org/ns#" xmlns:rdf="http://www.w3.org/1999/02/22-rdf-syntax-ns#" xmlns:svg="http://www.w3.org/2000/svg" xmlns="http://www.w3.org/2000/svg" xmlns:sodipodi="http://sodipodi.sourceforge.net/DTD/sodipodi-0.dtd" xmlns:inkscape="http://www.inkscape.org/namespaces/inkscape" version="1.1" x="0px" y="0px" viewBox="0 0 100 125"><g transform="translate(0,-952.36218)"><path style="text-indent:0;text-transform:none;direction:ltr;block-progression:tb;baseline-shift:baseline;color:#000000;enable-background:accumulate;" d="m 50,964.36216 c 7.158,0 14.3549,2.72995 19.8125,8.18755 4.0587,4.0586 6.5192,9.0935 7.5625,14.3437 10.5909,2.0545 18.625,11.3039 18.625,22.46879 0,12.6669 -10.333,23 -23,23 l -11,0 a 3.0003,3.0003 0 1 1 0,-6 l 11,0 c 9.4242,0 17,-7.5758 17,-17 0,-8.8999 -6.7685,-16.15049 -15.4375,-16.93749 a 3.0003,3.0003 0 0 1 -2.6875,-2.625 c -0.552,-4.7551 -2.6561,-9.3749 -6.3125,-13.0313 -4.3056,-4.3055 -9.9243,-6.4062 -15.5625,-6.4062 -5.6382,0 -11.2215,2.0963 -15.5312,6.4062 -4.9804,4.9803 -7.0879,11.7468 -6.3126,18.2188 a 3.0003,3.0003 0 0 1 -2.9687,3.375 l -1.1875,0 c -7.8079,0 -14,6.19209 -14,13.99999 0,7.8079 6.1921,14 14,14 l 14,0 a 3.0003,3.0003 0 1 1 0,6 l -14,0 c -11.0281,0 -20,-8.9719 -20,-20 0,-10.4082 8.0182,-18.88109 18.1875,-19.81249 -0.047,-7.2391 2.5242,-14.4931 8.0313,-20 5.4528,-5.4531 12.6232,-8.18755 19.7812,-8.18755 z m 0,34.00005 c 1.0002,0 1.529,0.3218 2.0312,0.7812 l 11,9.99999 c 1.2701,1.1788 1.248,3.0919 0.1876,4.25 -1.0605,1.1581 -3.0865,1.2419 -4.25,0.1875 L 53,1008.1434 l 0,29.2188 c 0,1.6568 -1.3429,3 -3,3 -1.6572,0 -3,-1.3432 -3,-3 l 0,-29.2188 -5.9688,5.4375 c -1.1635,1.0544 -3.1284,0.9115 -4.25,-0.1875 -1.1819,-1.1581 -0.9655,-3.1841 0.1876,-4.25 l 11,-9.99999 c 0.5942,-0.54411 1.031,-0.7812 2.0312,-0.7812 z" fill="#fff" fill-opacity="1" stroke="none" marker="none" visibility="visible" display="inline" overflow="visible"/></g></svg>
