<?xml version="1.0" encoding="utf-8"?><!DOCTYPE svg PUBLIC "-//W3C//DTD SVG 1.1//EN" "http://www.w3.org/Graphics/SVG/1.1/DTD/svg11.dtd"><svg version="1.1" xmlns="http://www.w3.org/2000/svg" xmlns:xlink="http://www.w3.org/1999/xlink" x="0px" y="0px" viewBox="0 0 100 107.13749999999999" enable-background="new 0 0 100 85.71" xml:space="preserve"><path fill="#010101" d="M18.52,0C9.581,0.15,0,5.967,0,18.539v30.57c0.107,8.405,5.374,17.288,16.449,18.338
	c0,3.217,0,18.264,0,18.264s26.046-17.342,27.168-18.062c1.365,0,37.845,0,37.845,0C90.419,67.533,100,61.678,100,49.109V18.515
	C99.876,9.567,94.018,0,81.462,0H18.52z M4.688,49.089v-30.55c0-13.274,12.451-13.84,13.871-13.852h62.903
	c13.257,0,13.838,12.415,13.851,13.85v30.572c0,13.27-12.472,13.84-13.871,13.852H42.202c0,0-15.825,10.49-21.065,13.988
	c0-4.611,0-13.988,0-13.988H18.52C5.266,62.96,4.699,50.488,4.688,49.089z"/></svg>
