<svg xmlns="http://www.w3.org/2000/svg" xmlns:xlink="http://www.w3.org/1999/xlink" version="1.1" x="0px" y="0px" viewBox="0 0 100 125" enable-background="new 0 0 100 100" xml:space="preserve"><path d="M78.666,34H60.125c-1.657,0-3,1.343-3,3s1.343,3,3,3h15.541v47.334H24.334V40h15.541c1.657,0,3-1.343,3-3s-1.343-3-3-3  H21.334c-1.657,0-3,1.343-3,3v53.334c0,1.657,1.343,3,3,3h57.332c1.657,0,3-1.343,3-3V37C81.666,35.343,80.323,34,78.666,34z   M38.722,25.188L47,16.909v48.507c0,1.657,1.343,3,3,3s3-1.343,3-3V16.909l8.278,8.278c0.586,0.586,1.354,0.879,2.121,0.879  s1.535-0.293,2.121-0.879c1.172-1.171,1.172-3.07,0-4.242L52.125,7.549C51.582,7.004,50.83,6.666,50,6.666s-1.582,0.338-2.125,0.883  L34.479,20.945c-1.172,1.172-1.172,3.071,0,4.242C35.651,26.359,37.55,26.359,38.722,25.188z" style="fill: #fff;"/></svg>
