<svg xmlns="http://www.w3.org/2000/svg" xmlns:xlink="http://www.w3.org/1999/xlink" version="1.1" x="0px" y="0px" viewBox="0 0 100 100" style="enable-background:new 0 0 100 100; stroke: white; stroke-width: 3px; fill: white;" xml:space="preserve">
  <g>
    <path d="M50,49.3c9.3,0,16.9-7.6,16.9-16.9S59.3,15.5,50,15.5c-9.3,0-16.9,7.6-16.9,16.9S40.7,49.3,50,49.3z M50,19.5   c7.1,0,12.9,5.8,12.9,12.9S57.1,45.3,50,45.3c-7.1,0-12.9-5.8-12.9-12.9S42.9,19.5,50,19.5z"/>
    <path d="M50,52.8c-16.4,0-29.7,13.3-29.7,29.7h4c0-14.2,11.5-25.7,25.7-25.7c14.2,0,25.7,11.5,25.7,25.7h4   C79.7,66.1,66.4,52.8,50,52.8z"/>
  </g>
</svg>
